<?xml version="1.0" standalone="no"?>
<!DOCTYPE svg PUBLIC "-//W3C//DTD SVG 1.1//EN" "http://www.w3.org/Graphics/SVG/1.1/DTD/svg11.dtd" >
<!--
2013-9-30: Created.
-->
<svg>
<metadata>
Created by iconfont
</metadata>
<defs>

<font id="iconfont" horiz-adv-x="1024" >
  <font-face
    font-family="iconfont"
    font-weight="500"
    font-stretch="normal"
    units-per-em="1024"
    ascent="896"
    descent="-128"
  />
    <missing-glyph />
    
    <glyph glyph-name="x" unicode="x" horiz-adv-x="1001"
d="M281 543q-27 -1 -53 -1h-83q-18 0 -36.5 -6t-32.5 -18.5t-23 -32t-9 -45.5v-76h912v41q0 16 -0.5 30t-0.5 18q0 13 -5 29t-17 29.5t-31.5 22.5t-49.5 9h-133v-97h-438v97zM955 310v-52q0 -23 0.5 -52t0.5 -58t-10.5 -47.5t-26 -30t-33 -16t-31.5 -4.5q-14 -1 -29.5 -0.5
t-29.5 0.5h-32l-45 128h-439l-44 -128h-29h-34q-20 0 -45 1q-25 0 -41 9.5t-25.5 23t-13.5 29.5t-4 30v167h911zM163 247q-12 0 -21 -8.5t-9 -21.5t9 -21.5t21 -8.5q13 0 22 8.5t9 21.5t-9 21.5t-22 8.5zM316 123q-8 -26 -14 -48q-5 -19 -10.5 -37t-7.5 -25t-3 -15t1 -14.5
t9.5 -10.5t21.5 -4h37h67h81h80h64h36q23 0 34 12t2 38q-5 13 -9.5 30.5t-9.5 34.5q-5 19 -11 39h-368zM336 498v228q0 11 2.5 23t10 21.5t20.5 15.5t34 6h188q31 0 51.5 -14.5t20.5 -52.5v-227h-327z" />
    

    
    <glyph glyph-name="tanhao" unicode="&#59093;" d="M512.0128-102.42496100000005C243.794895-102.42496100000005 25.60064 115.76929399999995 25.60064 383.98720000000003S243.794895 870.39936 512.0128 870.39936s486.41216-218.194255 486.41216-486.41216S780.230706-102.42496100000005 512.0128-102.42496100000005zM512.0128 819.19808C272.032401 819.19808 76.80192 623.9675990000001 76.80192 383.98720000000003s195.230481-435.21088 435.21088-435.21088 435.21088 195.230481 435.21088 435.21088S751.9932 819.19808 512.0128 819.19808zM473.304633 230.56256399999995c0 10.80347 3.788895 19.840496 11.392285 27.162279s16.691617 10.957074 27.290282 10.957074c10.39386 0 19.405285-3.788895 27.008675-11.392285s11.392285-16.512413 11.392285-26.701468c0-10.00985-3.712093-18.739668-11.110678-26.240656s-16.0004-11.238681-25.805445-11.238681c-12.0067 0-21.709343 3.737693-29.107928 11.238681S473.304633 220.55271400000004 473.304633 230.56256399999995zM542.01675 663.7765939999999l-6.912173-332.39871-48.0012 0L480.524013 663.7765939999999 542.01675 663.7765939999999z"  horiz-adv-x="1025" />

    
    <glyph glyph-name="212102" unicode="&#58890;" d="M512 20.6528c-5.2736 0-10.5728 1.0752-15.488 3.2512l-409.6 180.7104c-19.4048 8.5504-28.1856 31.232-19.6352 50.6368 8.5504 19.3792 31.2576 28.1856 50.6368 19.6352L512 101.0368l394.112 173.8752c19.4048 8.5504 42.0864-0.256 50.6368-19.6352 8.5504-19.4048-0.2304-42.0864-19.6352-50.6368l-409.6-180.7104C522.5728 21.7536 517.2736 20.6528 512 20.6528zM512 321.8368c-5.2736 0-10.5728 1.0752-15.488 3.2512l-409.6 180.7104c-19.4048 8.5504-28.1856 31.232-19.6352 50.6368s31.2576 28.1856 50.6368 19.6352L512 402.2208l394.112 173.8752c19.4048 8.5504 42.0864-0.2304 50.6368-19.6352 8.5504-19.4048-0.2304-42.0864-19.6352-50.6368l-409.6-180.7104C522.5728 322.912 517.2736 321.8368 512 321.8368z"  horiz-adv-x="1024" />

    
    <glyph glyph-name="wenjian" unicode="&#59067;" d="M100.7129375 528.70694063L100.7129375 680.66108156c0 20.64943969 12.49633969 33.76382437 34.271805 33.76382438l239.91110344 0c22.22418187 1.55780906 35.07610875-11.55657469 34.271805-33.76382438l0-50.64573562 514.09401187 0 0-101.31687094L100.7129375 528.6984740600001zM923.2870625 89.73489749999999c-0.78737062-19.87053562-6.13810781-34.82211844-34.271805-33.76382437L134.99320906 55.971073130000036c-23.28247688-3.67439812-34.08554531 10.13422687-34.271805 33.76382437L100.72140406 478.061205l822.56565844 0L923.2870625 89.73489749999999zM923.2870625 680.66108156L460.60075813 680.66108156l0 33.76382438c0 30.80906625-19.93826625 50.64573563-51.39924188 50.64573562L94.29544062 765.07064156c-24.8487525 0-44.98174406-19.83667031-44.98174406-44.32136906l0-671.11949906c0-24.46776656 20.1329925-44.32136906 44.98174406-44.32136907l835.41758532 0c24.83181937 0 44.98174406 19.83667031 44.98174406 44.32136907L974.69477 632.1234675000001C974.69477 662.93253375 956.69529969 681.71090906 923.2870625 680.66108156z"  horiz-adv-x="1024" />

    
    <glyph glyph-name="question" unicode="&#58945;" d="M512-56.32000000000005c-239.96928 0-435.2 195.22048-435.2 435.2s195.23072 435.2 435.2 435.2 435.2-195.22048 435.2-435.2-195.23072-435.2-435.2-435.2z m0 832.55808c-219.10528 0-397.35808-178.25792-397.35808-397.35808S292.89472-18.478079999999977 512-18.478079999999977s397.35808 178.25792 397.35808 397.35808S731.10528 776.23808 512 776.23808zM613.82656 560.44544c22.40512-20.5824 33.90976-49.03936 33.90976-85.37088 0-27.25376-7.86944-50.87232-23.00416-70.84544-6.05184-7.26016-22.40512-23.00416-49.03936-46.62272-13.32224-11.4944-22.40512-22.39488-28.45696-33.29536-7.86944-13.32224-11.50464-27.84768-11.50464-44.20096v-13.93152h-48.44032v13.93152c0 19.97312 3.64032 37.55008 10.90048 52.67968 8.4736 18.16576 28.45696 41.16992 61.15328 70.21568 9.68192 9.7024 16.94208 16.96256 20.5824 21.80608 12.10368 15.13472 18.16576 30.87872 18.16576 47.84128 0 24.20736-7.2704 42.9824-20.5824 56.30464-13.93152 14.52544-33.90976 21.1968-59.3408 21.1968-30.26944 0-52.67456-9.7024-67.20512-29.67552-13.312-16.94208-19.97312-39.96672-19.97312-69.62688h-47.83104c0 42.38848 11.50464 76.27776 35.71712 101.72416 24.22272 26.62912 58.12224 39.95136 101.72416 39.95136 38.73792 0 69.61664-10.29632 93.22496-32.08192z m-75.67872-346.92608c6.66112-6.67136 10.2912-15.13472 10.2912-25.42592 0-10.90048-3.63008-19.38432-10.90048-26.0352-7.26016-6.67136-15.73376-10.2912-26.02496-10.2912-10.2912 0-18.77504 3.61984-26.0352 10.2912-7.2704 7.26016-10.2912 15.744-10.2912 26.0352s3.0208 18.75456 10.2912 25.42592c7.26016 7.26016 15.744 10.2912 26.0352 10.2912s19.36896-3.03104 26.63424-10.2912z"  horiz-adv-x="1024" />

    
    <glyph glyph-name="error" unicode="&#58880;" d="M830.188 702.195c-80.986 81.417-193.098 131.805-316.977 131.805-0.427 0-0.852-0.001-1.278-0.002-248.455-0.007-449.92-201.472-449.927-449.993 0-248.528 201.467-449.999 449.993-450.007 248.527 0.007 449.993 201.479 449.993 450.006 0 0 0 0 0 0 0.001 0.359 0.002 0.786 0.002 1.212 0 123.88-50.388 235.991-131.786 316.958zM797.247 98.745c-72.608-72.979-173.115-118.144-284.169-118.144-0.379 0-0.758 0.001-1.137 0.002 0.055 0 0.050 0 0.046 0-222.786 0-403.39 180.604-403.39 403.39 0 0.005 0 0.008 0 0.013 0 0.003 0 0.008 0 0.012 0 222.786 180.604 403.39 403.39 403.39 0.005 0 0.008 0 0.013 0 0.003 0 0.007 0 0.012 0 222.786 0 403.39-180.604 403.39-403.39 0-0.005 0-0.008 0-0.013 0.001-0.327 0.002-0.715 0.002-1.103 0-111.053-45.17-211.555-118.139-284.139zM367.241 204.905c-14.25 0.005-25.799 11.558-25.799 25.808 0 7.124 2.888 13.575 7.555 18.245l299.591 299.591c4.705 4.903 11.313 7.951 18.633 7.951 14.253 0 25.807-11.554 25.807-25.808 0-7.32-3.047-13.928-7.942-18.624l-299.6-299.612c-4.658-4.679-11.106-7.575-18.229-7.575-0.006 0-0.011 0-0.017 0zM661.744 209.955c-0.005 0-0.010 0-0.016 0-7.123 0-13.57 2.896-18.228 7.574l-299.554 299.554c-4.903 4.705-7.951 11.314-7.951 18.633 0 14.253 11.554 25.807 25.808 25.807 7.32 0 13.927-3.047 18.624-7.942l299.612-299.575c4.668-4.67 7.555-11.12 7.555-18.245 0-14.253-11.554-25.808-25.808-25.808-0.015 0-0.030 0-0.045 0z"  horiz-adv-x="1024" />

    
    <glyph glyph-name="fujian1" unicode="&#59350;" d="M384.731429 23.259429c-10.093714 0-20.187429 0.731429-30.134858 2.194285-43.739429 6.436571-83.968 26.916571-119.369142 60.708572-34.523429 32.914286-56.758857 70.217143-66.121143 110.884571-7.314286 32.182857-6.436571 65.974857 2.779428 100.205714 10.971429 40.521143 32.475429 77.385143 62.171429 107.081143 78.994286 79.579429 265.654857 267.117714 289.206857 289.206857 9.216 8.630857 43.008 37.010286 91.867429 43.885715 34.523429 4.827429 86.162286-0.146286 135.899428-51.053715 36.425143-37.302857 50.468571-82.797714 41.691429-135.168-6.436571-38.912-28.818286-78.409143-64.512-114.102857l-250.148572-250.002285c-17.115429-17.261714-38.619429-29.403429-62.171428-35.254858-35.84-8.630857-69.193143 0-94.061715 23.990858-27.501714 26.624-35.84 63.488-22.966857 101.083428 6.144 17.700571 16.237714 33.645714 29.549715 46.811429L598.308571 593.334857c14.336 14.336 37.449143 14.336 51.785143 0 14.336-14.336 14.336-37.449143 0-51.785143L380.196571 271.798857c-5.412571-5.266286-9.508571-11.702857-11.995428-18.870857-4.827429-14.043429-0.146286-20.187429 4.681143-24.868571s11.702857-8.923429 26.038857-5.412572c10.532571 2.633143 20.041143 8.045714 27.648 15.798857l250.002286 250.148572c17.261714 17.261714 39.058286 44.324571 44.032 74.459428 4.827429 29.257143-1.901714 51.638857-21.942858 72.118857-22.966857 23.698286-47.104 33.353143-73.435428 29.696-21.942857-3.072-41.837714-15.36-52.077714-24.868571-18.578286-17.408-160.621714-159.744-287.305143-287.305143-20.626286-20.626286-35.693714-46.226286-43.300572-74.459428-13.897143-51.785143 0.585143-98.596571 43.154286-139.264 43.300571-41.398857 94.208-52.662857 150.966857-33.792 29.257143 9.947429 55.881143 26.624 77.531429 48.566857l276.187428 276.187428c14.336 14.336 37.449143 14.336 51.785143 0 14.336-14.336 14.336-37.449143 0-51.785143L565.979429 102.107429c-29.842286-29.988571-66.121143-52.662857-106.203429-66.267429-24.137143-8.192-49.444571-12.434286-75.044571-12.580571z"  horiz-adv-x="1024" />

    
    <glyph glyph-name="right" unicode="&#58881;" d="M829.952 701.952c-80.896 81.408-192.512 131.584-316.416 131.584h-1.536c-248.32 0-450.048-201.728-450.048-450.048s201.216-450.048 450.048-450.048 450.048 201.728 450.048 450.048v1.536c0 124.416-50.688 236.544-132.096 316.928zM797.184 98.816c-72.192-73.216-172.544-118.272-283.648-118.272h-1.536c-222.72 0-403.456 180.736-403.456 403.456s180.736 403.456 403.456 403.456 403.456-180.736 403.456-403.456v-1.536c0-111.104-45.056-211.456-118.272-283.648zM750.592 478.208l-254.976-254.976c-3.584-5.12-10.24-7.68-17.92-7.68s-13.824 2.56-17.92 7.68l-153.088 153.088c-5.12 3.584-7.68 10.24-7.68 17.92 0 13.824 11.264 25.6 25.6 25.6 7.68 0 13.824-2.56 17.92-7.68l135.168-135.168 237.056 237.056c5.12 5.12 11.264 7.68 17.92 7.68 13.824 0 25.6-11.264 25.6-25.6 0-7.68-2.56-13.824-7.68-17.92z"  horiz-adv-x="1024" />

    
    <glyph glyph-name="bianji-" unicode="&#58882;" d="M709.76 519.12L618.08 610.8l45.84 45.84c15.2 15.2 39.76 15.2 54.96 0l36.64-36.64c15.2-15.2 15.2-39.84 0-55.04l-45.76-45.84zM443.44 252.8L351.76 344.48l249.2 247.28 91.68-91.68L443.44 252.8z m-165.28-75.2l55.76 148.96L424.8 235.68 278.16 177.6z m411.68-31.28c12.8 0 23.2-10.4 23.2-23.2s-10.4-23.2-23.2-23.2H279.2c-12.8 0-23.2 10.4-23.2 23.2s10.4 23.2 23.2 23.2h410.64z"  horiz-adv-x="1024" />

    
    <glyph glyph-name="wenjian1" unicode="&#58897;" d="M894.5 735.1c0 25.9-10.7 50.2-30.2 68.5C845 821.9 818.7 832.1 791.4 832H231.1c-57.1-0.2-103.2-43.5-103.1-96.9V33c-0.1-53.4 46.1-96.7 103.1-96.9l304-0.1v0.3h1c18.3 0 33.1 13.9 33.1 31s-14.8 31-33.1 31c-0.4 0-0.8 0-1.2-0.1l-303.8 0.1c-20.5 0.1-37 15.6-37 34.8v702c0 19.2 16.6 34.8 37 34.8h560.2c20.4 0 36.9-15.6 36.9-34.8v-454.5H618c-8.3 0-16.2-3.1-22-8.5-5.8-5.5-9.1-12.9-9.1-20.6l0.1-241.6c0-11.9 7.8-22.6 19.6-27 3.7-1.4 7.6-2.1 11.5-2.1 8.4 0 16.6 3.2 22.6 9.1l244.9 241.6c6.5 6.4 9.4 15.1 8.3 23.7 0.4 1.8 0.6 3.7 0.6 5.6V735.1zM649.2 82.89999999999998l-0.1 139.5h141.4L649.2 82.89999999999998zM309.9 612.6v-0.1c-17.8-0.5-32.1-14.2-32.1-30.9s14.3-30.4 32.1-30.9v-0.1h393v0.3c16.5 1.8 29.2 14.9 29.2 30.8s-12.8 29-29.2 30.8v0.3h-393zM702.9 375v0.2c16.5 1.8 29.2 14.9 29.2 30.8s-12.8 29-29.2 30.8v0.2h-393v-0.1c-17.8-0.5-32.1-14.2-32.1-30.9 0-16.8 14.3-30.4 32.1-30.9v-0.1h393z"  horiz-adv-x="1024" />

    
    <glyph glyph-name="zhengque" unicode="&#58883;" d="M793.846 469.654c12.19 12.178 18.668 27.248 19.41 45.164 0.632 18.060-5.105 33.106-17.417 45.309-12.191 12.203-27.261 18.158-44.933 17.793-17.672-0.364-32.73-6.587-44.92-18.79l-288.12-286.879-99.2 97.718c-12.19 12.178-27.248 18.4-44.92 18.79-17.672 0.364-32.73-5.616-44.921-17.794-12.324-12.202-18.547-26.641-18.923-43.194-0.378-16.676 5.602-31.114 17.926-43.317l142.006-142.37c12.19-12.203 28.246-18.183 48.032-17.793 19.665 0.364 35.72 6.587 47.91 18.79l-3.986-4.108 332.056 330.682zM512.823 831.693c61.972 0 120.092-11.692 174.238-35.1 54.146-23.409 101.424-55.373 142.006-96.089 40.569-40.691 72.558-88.237 96.076-142.37 23.53-54.255 35.221-112.254 35.221-173.995 0-61.717-11.692-119.837-35.221-174.359-23.518-54.644-55.507-102.287-96.076-143.002-40.582-40.692-87.86-72.68-142.006-96.064-54.146-23.409-112.266-35.101-174.238-35.101s-120.214 11.692-174.736 35.101c-54.51 23.384-101.922 55.372-142.492 96.064-40.582 40.715-72.558 88.358-96.088 143.002-23.529 54.522-35.221 112.642-35.221 174.359 0 61.741 11.692 119.74 35.222 173.995 23.531 54.133 55.506 101.679 96.088 142.37 40.57 40.716 87.982 72.681 142.492 96.089 54.523 23.408 112.765 35.1 174.736 35.1z"  horiz-adv-x="1024" />

    
    <glyph glyph-name="cuowu" unicode="&#58891;" d="M937.503 570.435c-22.472 53.12-54.63 100.818-95.58 141.773-40.96 40.96-88.658 73.114-141.778 95.58-55.009 23.265-113.428 35.062-173.629 35.062-60.206 0-118.62-11.796-173.635-35.062-53.12-22.467-100.818-54.625-141.773-95.58-40.96-40.955-73.114-88.658-95.58-141.773-23.27-55.004-35.067-113.428-35.067-173.635 0-60.201 11.796-118.62 35.067-173.635 22.467-53.12 54.625-100.818 95.58-141.768 40.955-40.96 88.653-73.119 141.773-95.58 55.009-23.27 113.423-35.072 173.635-35.072 60.196 0 118.615 11.802 173.629 35.072 53.12 22.461 100.818 54.62 141.778 95.58 40.95 40.95 73.108 88.648 95.58 141.768 23.27 55.009 35.062 113.428 35.062 173.635 0 60.206-11.802 118.63-35.062 173.635zM526.515 1.649c-217.892 0-395.156 177.27-395.156 395.151 0 217.887 177.265 395.151 395.156 395.151 217.887 0 395.146-177.265 395.146-395.151-0-217.882-177.26-395.151-395.146-395.151zM525.691 225.792c-31.539 0-56.632-25.759-56.632-57.958 0-31.493 23.639-58.691 56.632-58.691 31.508 0 57.329 25.769 57.329 58.691 0 32.184-25.82 57.958-57.329 57.958zM494.152 285.901h65.94l29.686 380.027h-125.338z"  horiz-adv-x="1024" />

    
    <glyph glyph-name="wenjian2" unicode="&#58922;" d="M966.52974772 475.27103354V600.1906551100001a60.84735594 60.84735594 0 0 1-60.84735595 60.84735594H545.16180907L445.85892416 779.5078125H177.33954345a60.84735594 60.84735594 0 0 1-60.84735595-60.84735593v-669.32091312a60.84735594 60.84735594 0 0 1 60.84735593-60.84735595h698.83188073H846.66045655v60.84735595H177.33954345V718.6604565499999h232.68028811l99.30288491-118.46980144h396.3596753V475.27103354h60.84735595zM290.3330827 414.42367758L177.33954345 49.33954344999995h723.47506021l112.93269207 365.08413413H290.27223552z m0 60.84735596h723.47506021a60.84735594 60.84735594 0 0 0 59.2653247-74.59885823l-112.99354002-365.08413414a60.84735594 60.84735594 0 0 0-59.26532392-47.09585367H177.33954345a60.84735594 60.84735594 0 0 0-59.26532471 74.59885823l112.93269208 365.08413492A60.84735594 60.84735594 0 0 0 290.3330827 475.27103354z"  horiz-adv-x="1260" />

    
    <glyph glyph-name="APPxiazai" unicode="&#58933;" d="M233.89663 747.119479c0 46.990127 38.179478 85.067274 85.527761 85.067274h384.076748c47.23572 0 85.537994-38.45577 85.537994-85.067274v-725.317984a85.210537 85.210537 0 0 0-85.537994-85.067274H319.424391a85.548227 85.548227 0 0 0-85.527761 85.067274zM447.409042 0.69073a21.080066 21.080066 0 0 0 21.141464 21.325659h85.834752a21.489387 21.489387 0 0 0 21.131231-21.325659 21.080066 21.080066 0 0 0-21.131231-21.315425h-85.834752a21.489387 21.489387 0 0 0-21.141464 21.315425z m-149.463805 63.95651h427.035056V768.230243H297.945237z m64.05884 341.128672L511.457649 229.419675l149.463804 176.356237h-85.404964V533.75033H447.409042v-127.913019z m0 0"  horiz-adv-x="1024" />

    
    <glyph glyph-name="remenhuati" unicode="&#58934;" d="M671.891274 515.740177h-319.782548a32.592237 32.592237 0 1 0 0 65.184474h319.782548a32.592237 32.592237 0 0 0 0-65.184474zM671.891274 354.068354h-319.782548a32.592237 32.592237 0 1 0 0 65.184474h319.782548a32.592237 32.592237 0 0 0 0-65.184474zM671.891274 192.39653h-319.782548a32.592237 32.592237 0 1 0 0 65.184475h319.782548a32.592237 32.592237 0 0 0 0-65.184475zM468.601671 738.533957h103.353719c21.663349 0 39.908862 21.673582 39.908862 46.754767S593.659671 832.04349 570.850222 832.04349h-102.248551c-22.799217 0-41.04473-21.653116-41.04473-46.754766s18.245513-46.754767 41.04473-46.754767zM733.831874-64.422113H290.168126c-42.978774 0-79.398169 13.712276-105.328697 39.642803s-39.642803 62.360155-39.642803 105.328696V680.318184c0 42.804813 12.8527 78.385098 37.156174 102.903465S241.980733 820.73598 284.499021 820.73598h66.85246a32.090818 32.090818 0 0 0 0-64.19187H284.499021c-25.26538 0-44.298837-6.303554-56.568254-18.736699s-18.532038-31.804293-18.532038-57.489227v-599.758565c0-52.096414 28.652516-80.841028 80.841028-80.841028H733.831874c27.977136 0 47.992965 6.416117 61.183356 19.606508s19.606508 33.20622 19.606507 61.183355V680.318184c0 48.443219-27.373386 76.225926-75.100292 76.225926h-53.211816a32.090818 32.090818 0 0 0 0 64.19187h53.211816c40.686573 0 75.53008-13.446217 100.754527-38.885558s38.527401-60.528441 38.527402-101.522005v-599.758564c0-44.841188-13.210857-81.762002-38.210177-106.761323s-61.909901-38.230643-106.761323-38.230643z"  horiz-adv-x="1024" />

    
    <glyph glyph-name="qq" unicode="&#58935;" d="M863.331015 352.512931c-5.577008 8.933445-11.788464 18.521805-17.795259 27.803174s-12.04429 18.613903-17.478035 27.301755l-3.612264 6.017028c9.598593 18.327377 13.538314 34.792341 11.696367 49.1186-0.23536 16.372866-8.616221 32.111284-21.489388 40.400048-2.844786 2.865252-2.844786 3.315505-2.844785 16.301235v24.262541c0 13.855538 0 29.553024-2.363833 43.725787A302.386377 302.386377 0 0 1 694.383499 775.966423c-61.050326 46.458009-135.536635 67.169685-209.777351 58.328337-82.498781-10.028381-151.449015-45.629132-199.268018-102.954631A279.085742 279.085742 0 0 1 233.333813 635.303034c-11.379142-36.317064-16.01471-75.489147-13.773674-116.431547l0.122797-1.115401c1.667986-9.987449 0.511652-11.143782-3.796459-15.451893-16.372866-16.372866-18.419475-44.288604-18.419475-66.811528 0-11.010753 3.520166-20.015829 7.16313-27.629212-39.315346-54.050925-63.751849-103.005796-72.654595-145.565016-9.465563-45.260743-1.606588-83.409522 23.362033-113.3821 5.556542-8.012472 13.92717-12.433145 24.272775-12.832234 8.698085-2.138706 18.030619 1.248431 26.350082 9.567894l36.071471 39.335811a250.064836 250.064836 0 0 1 44.472799-88.239517l-5.802135-2.670824c-11.747532-5.38258-23.894152-10.949354-36.112403-18.542271-19.872567-10.233042-45.557501-40.052125-40.400048-67.773434 2.947116-26.687772 28.345525-49.118599 50.827517-56.660351 36.439861-13.640644 73.084383-18.931127 108.920494-15.728185a225.362274 225.362274 0 0 1 100.437303 34.116961 93.315106 93.315106 0 0 1 14.83791 9.567894c1.903346 1.422393 3.704361 2.773154 5.761202 4.144381l0.378623 0.266059c17.150578 12.862933 19.74977 12.003358 25.13235 9.874885a32.745733 32.745733 0 0 1 26.421713-0.920973c35.815645-37.319902 92.547628-59.576768 152.165328-59.576768 33.769037 0 63.864412 7.562218 84.719351 21.294959C812.523964-25.045369 820.710397-0.813527 820.710397 15.866331c0 24.641164-13.804373 45.496103-42.282928 63.803014l-0.378622 0.225127a377.977855 377.977855 0 0 1-37.299437 18.245513l3.172243 4.645801c10.478635 15.349562 20.373986 29.798617 29.215334 47.430147a153.679818 153.679818 0 0 1 12.688971 29.675821 177.031618 177.031618 0 0 1 17.396171-20.783308c20.11816-22.512691 39.131151-23.638326 51.574529-20.609345 11.194947 2.312667 30.699125 11.33821 36.47056 45.659831 11.430307 62.104329 1.790782 120.371268-27.936203 168.353999zM837.492585 223.689171c-5.61794 6.968701-11.727066 14.807211-17.846424 23.3825l-0.102331 0.143263c-3.243874 4.33881-6.027261 8.186433-8.718551 11.993125s-5.48491 7.674781-8.800416 12.105688c-7.163129 10.560499-20.680977 15.820282-32.827597 12.791302-13.047128-3.26434-21.591718-10.775393-24.753728-21.714515-3.929488-8.186433-6.139825-17.396171-8.073869-25.490506-0.327457-1.360995-0.644682-2.69129-0.961906-3.980653-2.046608-6.139825-3.909022-12.392213-5.577008-17.948755-4.093217-13.497382-7.858976-26.237518-13.620178-37.759923a339.736979 339.736979 0 0 0-32.172683-51.461966c-1.954511-2.599193-3.929488-5.034656-5.843066-7.388256-4.748131-5.843067-9.209737-11.358676-12.781069-18.419475-4.093217-8.288764-5.239317-16.58776-3.172243-24.047647 0.880042-7.746412 7.316625-17.549666 17.86689-21.049367a70.843347 70.843347 0 0 0 8.595755-3.888556 91.862014 91.862014 0 0 1 10.5298-4.707199c4.246712-2.108007 8.769717-4.144382 13.630411-6.344486 10.100012-4.553703 20.537714-9.271136 28.836711-14.807211a54.409082 54.409082 0 0 0 8.391094-6.723108 58.952552 58.952552 0 0 0-9.966982-6.917536c-47.450614-26.820802-126.889715-14.090898-163.728665 26.17612-7.644082 11.00052-23.535996 23.730423-43.326697 23.730424a51.410801 51.410801 0 0 1-10.959588-1.637287l-1.74985-0.388856c-35.201663 8.483191-60.988928-8.462725-79.582364-24.313706-3.069912-2.046608-5.628173-4.093217-7.756646-5.75097a44.534197 44.534197 0 0 0-6.088659-4.30811l-0.747012-0.409322C378.540672-4.507655 328.142943-8.600871 272.219371 11.865212a42.252228 42.252228 0 0 0-5.935164 4.093216c2.957349 3.254107 3.97042 3.919255 4.154615 4.021586l0.501419 0.266059c8.708318 4.973258 18.265979 9.271136 28.427389 13.835072 7.163129 3.192709 14.469521 6.497981 21.86801 10.233041l1.094935 0.634449c2.967582 1.98521 7.163129 3.622497 11.512172 5.362114 3.561098 1.41216 7.244993 2.865252 11.113083 4.758364 8.493424 3.141544 15.349562 11.00052 18.920894 21.612184 4.195547 12.566175-4.093217 25.296079-9.11764 30.310269l-0.143263 0.143262c-43.357397 41.187992-65.491466 89.477715-67.538074 147.601391v1.023305l-0.255826 1.023304c-4.553703 18.23528-14.26486 24.733261-21.73498 26.964064-11.491706 5.310949-23.986249 3.295039-36.163569-5.843067l-0.798177-0.603749-41.95547-46.765c2.517328 40.727505 28.652516 95.013791 74.517008 154.518927l0.409322 0.562818c7.83851 11.747532 5.116521 24.99932 3.847623 29.460926a25.13235 25.13235 0 0 1-3.980653 11.256346c-0.480953 0.839109-1.023304 1.708918-1.453092 2.629891-0.80841 1.606588-2.865252 5.740736-3.335971 7.16313 0.061398 13.599712 1.934045 20.056761 2.711756 22.154534 23.362034 24.19091 23.535996 48.207859 21.540552 64.263501-8.391094 132.0881 76.747811 230.611824 211.987689 245.173442 118.703282 14.571851 232.607267-71.846185 253.779429-192.718871v-0.173962c2.046608-10.05908 2.046608-20.333054 2.046609-33.349482V519.424072c0-15.748651 0-44.769557 27.240356-65.389136a31.487069 31.487069 0 0 0-8.800415-17.989687c-9.209737-9.209737-13.384818-25.756566-3.407603-39.427909l15.226766-23.924851c5.536075-8.851581 11.696366-18.419475 17.662229-27.629212l0.143263-0.225127c5.904465-9.127873 12.013591-18.562737 17.457569-27.271056C831.966743 286.612144 839.621058 256.516769 837.492585 223.689171z"  horiz-adv-x="1024" />

    
    <glyph glyph-name="fankui" unicode="&#58936;" d="M203.760323-62.262941a67.92693 67.92693 0 0 0-67.855298 67.855298V763.277451a67.92693 67.92693 0 0 0 67.855298 67.865532H617.07287a33.421114 33.421114 0 0 0 0-66.831994H203.760323a1.023304 1.023304 0 0 1-1.023304-1.023305v-757.70556a1.023304 1.023304 0 0 1 1.023304-1.023304h619.938122a1.023304 1.023304 0 0 1 1.023304 1.023304V556.641644a33.421114 33.421114 0 0 0 66.831994 0v-551.049287a67.92693 67.92693 0 0 0-67.855298-67.855298z m172.201623 241.080225a33.421114 33.421114 0 0 0 0 66.831994h275.534876a33.421114 33.421114 0 0 0 0-66.831994z m0 172.201623a33.410881 33.410881 0 1 0 0 66.831994h275.534876a33.410881 33.410881 0 0 0 0-66.831994z m0 172.201623a33.410881 33.410881 0 0 0 0 66.831994H513.719151a33.410881 33.410881 0 1 0 0-66.831994z m277.550785 33.707639c-8.810649 0-17.866891 3.990886-24.825358 10.959587-12.719671 12.719671-14.643482 31.507535-4.277412 41.863373L839.129872 824.481273a23.771355 23.771355 0 0 0 17.038014 6.682176c8.820882 0 17.866891-3.990886 24.835592-10.949355a36.450094 36.450094 0 0 0 10.816325-21.919175c0.777711-7.869209-1.545189-14.950474-6.538914-19.944197L670.550745 563.620578a23.791822 23.791822 0 0 0-17.038014-6.682176z m0 0M856.167886 830.140145c8.54459 0 17.334772-3.888556 24.109046-10.66283 12.27965-12.27965 14.234161-30.453532 4.277411-40.410281L669.8242 564.336891a22.512691 22.512691 0 0 0-16.311469-6.385418c-8.54459 0-17.334772 3.878323-24.098812 10.652596-12.27965 12.27965-14.244394 30.453532-4.277412 40.420514L839.856418 823.754727a22.512691 22.512691 0 0 0 16.311468 6.385418m-239.207579 0h0.112563a32.387576 32.387576 0 1 0 0-64.785386H203.760323a2.046608 2.046608 0 0 1-2.046608-2.046609v-757.726026a2.046608 2.046608 0 0 1 2.046608-2.046608h619.938122a2.046608 2.046608 0 0 1 2.046608 2.046608V556.641644a32.387576 32.387576 0 0 0 64.785386 0v-551.049287a66.903626 66.903626 0 0 0-66.831994-66.831994H203.760323a66.903626 66.903626 0 0 0-66.831994 66.831994V763.277451a66.903626 66.903626 0 0 0 66.831994 66.842228h413.199984M513.719151 589.008754a32.397809 32.397809 0 1 0 0-64.785386H375.961946a32.397809 32.397809 0 0 0 0 64.785386H513.719151m137.777671-172.181157a32.397809 32.397809 0 0 0 0-64.785386H375.961946a32.397809 32.397809 0 0 0 0 64.785386h275.534876m0-172.201623a32.387576 32.387576 0 0 0 0-64.785386H375.961946a32.387576 32.387576 0 0 0 0 64.785386h275.534876m204.660831 587.560779a24.692329 24.692329 0 0 1-17.76456-6.989167L623.683415 610.498141c-10.785626-10.775393-8.872047-30.177239 4.277412-43.316465 7.418955-7.418955 16.82312-11.256346 25.582603-11.256345a24.702562 24.702562 0 0 1 17.764561 6.968701l214.689211 214.719911c10.775393 10.785626 8.872047 30.177239-4.277411 43.316464-7.418955 7.418955-16.82312 11.256346-25.582604 11.256346z m-32.469441 0H203.760323a68.878603 68.878603 0 0 1-68.878603-68.878603v-757.715793a68.878603 68.878603 0 0 1 68.878603-68.878602h619.938122a68.878603 68.878603 0 0 1 68.878603 68.878602v551.049287a34.444418 34.444418 0 0 1-68.878603 0v-551.049287H203.760323V763.277451H617.07287a34.444418 34.444418 0 1 1 0 68.878603h206.625575zM513.719151 591.055362H375.961946a34.444418 34.444418 0 0 1 0-68.878602H513.719151a34.444418 34.444418 0 1 1 0 68.878602z m137.777671-172.181156H375.961946a34.444418 34.444418 0 0 1 0-68.878603h275.534876a34.444418 34.444418 0 0 1 0 68.878603z m0-172.201623H375.961946a34.444418 34.444418 0 1 1 0-68.878603h275.534876a34.444418 34.444418 0 1 1 0 68.878603z m0 0"  horiz-adv-x="1024" />

    
    <glyph glyph-name="fujian" unicode="&#58937;" d="M326.137267-15.886797c-58.164608 0-114.702163 27.076628-168.568893 80.841028C24.907223 197.564216 37.227805 361.978495 191.378343 516.047168c78.548827 78.548827 235.421353 221.166727 242.052364 227.173522a35.211896 35.211896 0 1 0 47.348283-52.188512c-1.667986-1.41216-162.275573-147.417196-239.668065-224.819922-127.831155-127.841388-139.240996-246.135348-33.769037-351.576608 65.552864-65.348203 114.354239-63.966743 145.309189-57.212935 43.869049 9.506496 91.821082 41.535916 150.968062 100.836391l318.974138 319.056002c45.025383 44.963984 67.599472 83.225327 67.108286 113.678858-0.491186 30.944718-26.41148 55.350522-51.513131 78.937682-5.423512 5.116521-10.734461 10.100012-15.595155 14.960707-39.468841 39.642803-70.055402 36.163569-92.414599 28.652516-38.977655-13.159691-82.038294-52.730863-115.152416-85.752888L324.592077 337.378263c-18.030619-18.030619-29.57349-38.159012-32.530839-56.680817-2.998281-18.798097 3.069912-35.457489 18.419475-50.86845 46.048687-46.048687 105.093337 11.931726 107.590199 14.39789L737.075748 563.221489a35.201663 35.201663 0 0 0 49.783748-49.783747L467.885358 194.432906c-55.063996-55.023064-143.917496-77.668785-207.157693-14.39789-57.73482 57.73482-52.065715 141.011312 14.090898 207.157693l290.444418 290.454651c59.351641 59.106048 182.72119 181.984411 307.216373 56.998041 4.33881-4.33881 9.086941-8.800416 13.978335-13.415517 30.699125-28.836711 72.736459-68.36695 73.677899-129.100052 0.767478-50.909382-27.885038-104.745413-87.727865-164.557541L553.433585 108.567454c-69.07303-69.287924-128.148379-107.446936-185.862733-119.910781a194.622217 194.622217 0 0 0-41.433585-4.54347z m0 0"  horiz-adv-x="1024" />

    
    <glyph glyph-name="kefu" unicode="&#58939;" d="M820.648999 319.337411c6.457049 16.372866 0 36.265899-15.902147 42.722948s-35.273294 0-41.740576-16.372866C747.114362 315.858176 682.564336 299.413679 592.083783 299.413679c-19.371148 0-32.315945-13.364352-32.315945-32.745733 0-19.872567 12.914098-32.745733 32.295479-32.745733h9.445097c83.47092 0 186.824639 16.372866 219.120119 85.466363z m0 0M891.20582 474.859176l-41.740576 16.372866C836.551145 679.05952 682.021985 831.122517 495.197346 831.122517c-190.334572 0-344.8535-155.030579-354.267898-346.327058l-19.381381-13.415517c-6.457049-6.457049-12.914098-16.372866-12.914098-26.329616v-138.627014c0-19.872567 12.914098-32.745733 32.295479-32.745733s32.295479 13.415517 32.295479 32.745733v118.703282L192.596075 438.583044c6.457049 6.467282 12.914098 16.372866 12.914098 29.819083 0 164.966863 128.69073 297.136827 290.178359 297.136827S785.918056 633.368989 785.918056 468.402127c0-13.446217 9.383699-26.339849 22.30803-29.819083l41.740577-16.372867v-112.80905c0-19.8828 12.914098-32.745733 32.295479-32.745733s32.295479 13.415517 32.295479 32.745733V448.028141c-0.501419 9.936283-10.437702 23.351801-23.351801 26.831035z m0 0M495.197346 256.731662c-99.874485 0-183.846824 82.478315-183.846824 188.287965 0 102.330415 80.493105 188.287964 183.846824 188.287964 99.874485 0 183.846824-82.488548 183.846824-188.287964 0-13.415517 0-26.339849-2.988048-39.755367-2.977815-16.372866 6.467282-36.276132 25.83843-39.755366 15.902147-3.479234 35.283527 6.467282 38.762761 26.339849 2.977815 16.372866 6.457049 36.265899 6.457049 52.669465 0 138.657713-109.810769 253.984091-247.946596 253.98409S250.238798 586.655154 250.238798 445.050326c0-88.945597 45.219811-164.966863 112.788583-211.179278-112.788584-39.745133-196.760923-132.159731-219.120118-253.902227-2.977815-16.372866 6.457049-36.276132 25.83843-39.755366h6.467282c15.902147 0 28.816245 9.936283 32.295479 26.339849C234.357117 101.711316 350.113283 191.148099 498.67658 191.148099c19.381381 0 32.295479 13.415517 32.295479 32.745733-3.97042 19.872567-16.894752 32.745733-35.815645 32.745733z m244.958548-62.605748c-12.914098 9.936283-35.283527 9.936283-45.219811-6.467282-9.434864-13.415517-9.434864-36.265899 6.45705-46.202182 45.219811-36.276132 99.874485-92.424831 115.776632-178.38238 2.977815-16.372866 15.902147-26.339849 32.295479-26.339849h6.457049C871.875605-59.766079 884.748771-43.393213 881.760723-23.50018c-19.381381 105.33893-86.980853 174.903146-141.604829 217.636327z m0 0"  horiz-adv-x="1024" />

    
    <glyph glyph-name="zaixianliaotian" unicode="&#58940;" d="M915.437662 765.968741H108.490706a44.30907 44.30907 0 0 1-44.257904-44.257904v-551.090219A44.30907 44.30907 0 0 1 108.490706 126.362713h83.665348v-90.521485a34.874206 34.874206 0 0 1 54.23512-29.020906L425.714994 126.35248h489.722668a44.30907 44.30907 0 0 1 44.257905 44.268138V721.710837a44.30907 44.30907 0 0 1-44.257905 44.257904z m-19.698605-575.649518H406.343846l-150.22105-100.150778v100.150778h-127.913019v511.652077h767.52928z m0 0M256.429788 574.088979h543.374505v-63.966742h-543.374505zM256.429788 383.713475h383.759523v-63.95651H256.429788z"  horiz-adv-x="1024" />

    
    <glyph glyph-name="fanhuidingbu" unicode="&#58938;" d="M84.729584 770.266619l854.530599 0 0-61.398249-854.530599 0 0 61.398249ZM138.68372 225.26519900000005l373.514735 373.514734 43.415118-43.415118-373.514735-373.514735-43.415118 43.415119ZM511.800821 598.780233l373.514735-373.514735-43.415118-43.415118-373.514735 373.514735 43.415118 43.415118ZM481.096215-84.27421400000003l0 670.335852 61.398249 0 0-670.335852-61.398249 0Z"  horiz-adv-x="1024" />

    
    <glyph glyph-name="ziyuan" unicode="&#59095;" d="M650.069333 221.866667l-88.746666 93.866666a12.288 12.288 0 0 1-17.92 0l-27.989334-29.866666 35.498667-37.205334-12.629333-13.312-71.338667 75.093334a12.288 12.288 0 0 1-17.92 0l-84.309333-88.576v-10.581334h285.354666zM406.869333 355.157333m-28.842666 0a28.842667 28.842667 0 1 1 57.685333 0 28.842667 28.842667 0 1 1-57.685333 0ZM910.677333 648.704h-149.162666A62.464 62.464 0 0 0 699.733333 711.168V860.16zM761.514667 648.704A62.464 62.464 0 0 0 699.733333 711.168V860.16H170.666667a56.149333 56.149333 0 0 1-57.344-55.978667v-840.362666a56.149333 56.149333 0 0 1 55.978666-55.978667h685.397334a56.149333 56.149333 0 0 1 55.978666 55.978667V648.704z m-6.144-616.618667H258.048V529.578667h497.493333z"  horiz-adv-x="1024" />

    
    <glyph glyph-name="ziyuan1" unicode="&#59096;" d="M446.122667 174.08a39.253333 39.253333 0 0 1 35.669333 36.010667v81.066666c0 7.509333 8.704 10.752 8.704 10.752l76.629333 24.917334s8.533333 3.072 8.533334-5.12v-65.024a37.205333 37.205333 0 0 1-21.845334 2.901333 40.448 40.448 0 0 1-37.205333-35.669333c0-17.066667 17.066667-28.16 37.205333-25.429334a40.277333 40.277333 0 0 1 37.205334 35.669334V366.933333a13.994667 13.994667 0 0 1-18.944 14.165334l-86.528-27.477334a27.989333 27.989333 0 0 1-18.944-25.258666v-94.890667a29.696 29.696 0 0 1-20.309334 2.389333A41.472 41.472 0 0 1 409.6 198.656c0-17.066667 16.042667-27.648 36.522667-24.576zM912.213333 649.728h-149.504A62.634667 62.634667 0 0 0 699.733333 712.362667V861.866667zM699.733333 861.866667H167.936a56.32 56.32 0 0 1-56.149333-56.149334v-843.434666A56.32 56.32 0 0 1 167.936-93.866667h688.128a56.32 56.32 0 0 1 56.149333 56.149334V649.728z m56.32-830.976H257.194667V529.92h499.029333z m6.314667 618.837333A62.634667 62.634667 0 0 0 699.733333 712.362667V861.866667l212.48-212.138667z"  horiz-adv-x="1024" />

    
    <glyph glyph-name="ziyuan2" unicode="&#59097;" d="M400.725333 225.28l103.594667-58.026667a4.949333 4.949333 0 0 1 4.949333 0l103.594667 58.026667a4.949333 4.949333 0 0 1 0 8.704L589.482667 247.466667a4.949333 4.949333 0 0 1-4.949334 0l-75.264-42.666667a4.949333 4.949333 0 0 0-4.949333 0L428.885333 247.466667a4.949333 4.949333 0 0 1-4.949333 0l-23.381333-13.141334a4.949333 4.949333 0 0 1 0.170666-9.045333zM400.725333 325.632l103.594667-58.026667a4.949333 4.949333 0 0 1 4.949333 0l103.594667 58.026667a4.949333 4.949333 0 0 1 0 8.704l-103.594667 58.026667a4.949333 4.949333 0 0 1-4.949333 0l-103.594667-58.026667a4.949333 4.949333 0 0 1 0-8.704zM400.725333 275.456l103.594667-58.026667a4.949333 4.949333 0 0 1 4.949333 0l103.594667 58.026667a4.949333 4.949333 0 0 1 0 8.704l-23.381333 13.141333a4.949333 4.949333 0 0 1-4.949334 0l-75.434666-42.154666a4.949333 4.949333 0 0 0-4.949334 0l-75.434666 42.154666a4.949333 4.949333 0 0 1-4.949334 0l-23.381333-13.141333a4.949333 4.949333 0 0 1 0.341333-8.704zM914.432 651.093333h-150.186667a62.976 62.976 0 0 0-62.976 62.976v150.186667zM701.269333 864.256H166.058667a56.661333 56.661333 0 0 1-56.490667-56.32v-847.872a56.490667 56.490667 0 0 1 56.490667-56.490667h691.882666a56.661333 56.661333 0 0 1 56.490667 56.490667V651.093333h-150.186667a62.976 62.976 0 0 0-62.976 62.976v150.186667l213.162667-213.162667z m56.149334-333.824V29.013333H256V530.602667z"  horiz-adv-x="1024" />

    
    <glyph glyph-name="ziyuan3" unicode="&#59098;" d="M456.704 171.008l163.498667 94.378667a13.824 13.824 0 0 1 0 23.893333L456.704 384a13.824 13.824 0 0 1-20.821333-11.946667v-189.098666a13.824 13.824 0 0 1 20.821333-11.946667zM916.650667 652.629333h-151.04a63.146667 63.146667 0 0 0-63.146667 63.146667V866.816zM702.464 866.816H164.010667A56.832 56.832 0 0 1 107.349333 810.666667v-853.333334a56.832 56.832 0 0 1 56.661334-56.661333h695.978666A56.832 56.832 0 0 1 916.650667-42.666667V652.629333z m56.149333-839.509333H254.805333V531.114667h503.808z m6.997334 625.322666a63.146667 63.146667 0 0 0-63.146667 63.146667V866.816l214.186667-214.186667z"  horiz-adv-x="1024" />

    
    <glyph glyph-name="ziyuan4" unicode="&#59099;" d="M386.901333 213.333333h85.333334a5.973333 5.973333 0 0 1 5.973333 5.973334v12.117333a5.973333 5.973333 0 0 1-5.973333 5.973333l-57.002667-1.365333 61.269333 94.890667a10.069333 10.069333 0 0 1 0.853334 3.242666v8.874667a5.973333 5.973333 0 0 1-5.973334 5.973333H392.533333a5.973333 5.973333 0 0 1-5.973333-5.973333v-11.946667a5.973333 5.973333 0 0 1 5.973333-5.973333l51.2 1.365333-61.44-94.72a10.069333 10.069333 0 0 1-1.024-3.242666v-9.045334a5.973333 5.973333 0 0 1 5.632-6.144zM495.616 349.184l27.136 0 0-135.338667-27.136 0 0 135.338667ZM555.52 213.333333h15.189333a5.973333 5.973333 0 0 1 5.973334 5.973334l-0.853334 42.837333h17.066667c32.426667 0 51.2 17.066667 51.2 44.373333S626.688 349.866667 591.872 349.866667h-36.352a5.973333 5.973333 0 0 1-5.973333-5.973334v-123.392a5.973333 5.973333 0 0 1 5.973333-7.168z m21.162667 112.298667h13.312c22.869333 0 27.648-7.68 27.648-19.114667 0-15.018667-8.021333-21.333333-26.965334-21.333333l-13.994666-0.853333zM914.602667 651.264h-150.357334a62.976 62.976 0 0 0-62.976 62.976v150.186667zM764.245333 651.264a62.976 62.976 0 0 0-62.976 62.976v150.186667l213.333334-213.162667-213.333334 213.162667H165.888a56.661333 56.661333 0 0 1-56.490667-56.32v-848.213334a56.661333 56.661333 0 0 1 56.490667-56.490666h692.224a56.661333 56.661333 0 0 1 56.490667 56.490666V651.264z m-6.656-622.250667H256V530.602667h501.589333z"  horiz-adv-x="1024" />

    
    <glyph glyph-name="huijigangwei_jinrong" unicode="&#58941;" d="M320.857017 415.149378l382.2655 0 0-61.398249-382.2655 0 0 61.398249ZM542.688892 414.392133l0-382.265499-61.39825 0 0 382.265499 61.39825 0ZM468.569202 380.500466l270.302527 270.302527 43.415118-43.415118-270.302527-270.302527-43.415118 43.415118ZM468.569202 380.500466l270.302527 270.302527 43.415118-43.415118-270.302527-270.302527-43.415118 43.415118ZM511.979367 337.079135l-270.302527 270.302527 43.415119 43.415119 270.302527-270.302527-43.415119-43.415119ZM320.857017 287.236359l382.2655 0 0-61.398249-382.2655 0 0 61.398249ZM512.409322 802.111844a418.183475 418.183475 0 0 0 162.70536-803.29376 418.173242 418.173242 0 0 0-325.410721 770.45593 415.379622 415.379622 0 0 0 162.705361 32.827597m0 63.444857c-265.92605 0-481.495303-215.569253-481.495304-481.495303s215.569253-481.48507 481.495304-481.48507 481.495303 215.569253 481.495303 481.495303S778.335372 865.556701 512.409322 865.556701z"  horiz-adv-x="1024" />

    


  </font>
</defs>
</svg>
